
<svg xmlns="http://www.w3.org/2000/svg"  viewBox="0 0 24 24" width="18px" height="18px">    <path stroke-width="0.5px" stroke="#000" fill="#fff" d="M 12 3 C 9.263544 3 6.8151574 4.2316704 5.1660156 6.1660156 L 3 4 L 3 10 L 9 10 L 6.5917969 7.5917969 C 7.8747922 6.0167955 9.8149031 5 12 5 C 15.859 5 19 8.14 19 12 L 21 12 C 21 7.038 16.963 3 12 3 z M 3 12 C 3 16.963 7.037 21 12 21 C 14.736456 21 17.184843 19.76833 18.833984 17.833984 L 21 20 L 21 14 L 15 14 L 17.408203 16.408203 C 16.125208 17.983204 14.185097 19 12 19 C 8.141 19 5 15.859 5 12 L 3 12 z"/></svg>