
<svg xmlns="http://www.w3.org/2000/svg"  viewBox="0 0 24 24" width="18px" height="18px"><path stroke='#000' stroke-width='0.5px' fill='#fff' transform="matrix(0.241922, -0.970296, 0.970296, 0.241922, -2.546611, 20.740487)" d="M 20.292969 2.2929688 L 16.828125 5.7578125 L 15.949219 4.8789062 C 15.367682 4.2973697 14.59791 4.0058594 13.828125 4.0058594 C 13.05834 4.0058594 12.288568 4.2973697 11.707031 4.8789062 L 9.5 7.0859375 L 8.7070312 6.2929688 L 7.2929688 7.7070312 L 6.2929688 8.7070312 L 7.0859375 9.5 L 4.8789062 11.707031 C 3.7158333 12.870104 3.7158333 14.786146 4.8789062 15.949219 L 5.7578125 16.828125 L 2.2929688 20.292969 L 3.7070312 21.707031 L 7.171875 18.242188 L 8.0507812 19.121094 C 9.2138544 20.284167 11.129896 20.284167 12.292969 19.121094 L 14.5 16.914062 L 15.292969 17.707031 L 16.292969 16.707031 L 17.707031 15.292969 L 16.914062 14.5 L 19.121094 12.292969 C 20.284167 11.129896 20.284167 9.2138544 19.121094 8.0507812 L 18.242188 7.171875 L 21.707031 3.7070312 L 20.292969 2.2929688 z M 13.828125 5.9941406 C 14.081909 5.9941406 14.335693 6.0935052 14.535156 6.2929688 L 17.707031 9.4648438 C 18.105958 9.8637706 18.105958 10.479979 17.707031 10.878906 L 15.5 13.085938 L 10.914062 8.5 L 13.121094 6.2929688 C 13.320557 6.0935052 13.574341 5.9941406 13.828125 5.9941406 z M 8.5 10.914062 L 13.085938 15.5 L 10.878906 17.707031 C 10.479979 18.105958 9.8637706 18.105958 9.4648438 17.707031 L 6.2929688 14.535156 C 5.8940418 14.136229 5.8940417 13.520021 6.2929688 13.121094 L 8.5 10.914062 z"/></svg>