
<svg xmlns="http://www.w3.org/2000/svg"  viewBox="0 0 24 24" width="18px" height="18px"><path stroke='#000' stroke-width='0.5px' fill='#fff' transform="matrix(0.241922, -0.970296, 0.970296, 0.241922, -2.546611, 20.740487)" d="M 15.828125 2.0058594 C 15.05834 2.0058594 14.288568 2.2973697 13.707031 2.8789062 L 11.5 5.0859375 L 10.707031 4.2929688 L 9.2929688 5.7070312 L 11.085938 7.5 L 9.2929688 9.2929688 L 10.707031 10.707031 L 12.5 8.9140625 L 15.085938 11.5 L 13.292969 13.292969 L 14.707031 14.707031 L 16.5 12.914062 L 18.292969 14.707031 L 19.707031 13.292969 L 18.914062 12.5 L 21.121094 10.292969 C 22.284167 9.1298952 22.284167 7.2138544 21.121094 6.0507812 L 20.242188 5.171875 L 21.707031 3.7070312 L 20.292969 2.2929688 L 18.828125 3.7578125 L 17.949219 2.8789062 C 17.367682 2.2973698 16.59791 2.0058594 15.828125 2.0058594 z M 15.828125 3.9941406 C 16.081909 3.9941406 16.335693 4.0935053 16.535156 4.2929688 L 19.707031 7.4648438 C 20.105958 7.8637707 20.105958 8.4799793 19.707031 8.8789062 L 17.5 11.085938 L 12.914062 6.5 L 15.121094 4.2929688 C 15.320557 4.0935052 15.574341 3.9941406 15.828125 3.9941406 z M 5.7070312 9.2929688 L 4.2929688 10.707031 L 5.0859375 11.5 L 2.8789062 13.707031 C 1.7158333 14.870104 1.7158332 16.786146 2.8789062 17.949219 L 3.7578125 18.828125 L 2.2929688 20.292969 L 3.7070312 21.707031 L 5.171875 20.242188 L 6.0507812 21.121094 C 7.2138544 22.284167 9.1298952 22.284167 10.292969 21.121094 L 12.5 18.914062 L 13.292969 19.707031 L 14.707031 18.292969 L 5.7070312 9.2929688 z M 6.5 12.914062 L 11.085938 17.5 L 8.8789062 19.707031 C 8.4799795 20.105958 7.8637705 20.105958 7.4648438 19.707031 L 4.2929688 16.535156 C 3.8940417 16.136229 3.8940417 15.520021 4.2929688 15.121094 L 6.5 12.914062 z"/></svg>