<svg width="42" height="42" viewBox="0 0 42 42" fill="none" xmlns="http://www.w3.org/2000/svg">
<mask id="mask0_1120_10421" style="mask-type:alpha" maskUnits="userSpaceOnUse" x="0" y="0" width="42" height="42">
<path fill-rule="evenodd" clip-rule="evenodd" d="M42 0H0V42H42V0ZM30 12H12V30H30V12Z" fill="#D9D9D9"/>
</mask>
<g mask="url(#mask0_1120_10421)">
<path d="M42 0H0V42L42 0Z" fill="url(#paint0_linear_1120_10421)"/>
<path d="M42 0H0V17L42 0Z" fill="url(#paint1_linear_1120_10421)"/>
<path d="M0 42H42V0L0 42Z" fill="url(#paint2_linear_1120_10421)"/>
<path d="M25 42H42V0L25 42Z" fill="url(#paint3_linear_1120_10421)"/>
</g>
<defs>
<linearGradient id="paint0_linear_1120_10421" x1="42" y1="-8.04662e-07" x2="-9.29194e-07" y2="28.5" gradientUnits="userSpaceOnUse">
<stop offset="0.25" stop-color="#FB3A4F"/>
<stop offset="1" stop-color="#C00140"/>
</linearGradient>
<linearGradient id="paint1_linear_1120_10421" x1="42" y1="-3.82006e-06" x2="-1.42882" y2="3.55752" gradientUnits="userSpaceOnUse">
<stop stop-color="#BA013F"/>
<stop offset="1" stop-color="#791C33"/>
</linearGradient>
<linearGradient id="paint2_linear_1120_10421" x1="29" y1="-5.29346e-07" x2="-3.8743e-07" y2="42" gradientUnits="userSpaceOnUse">
<stop stop-color="#40E2A2"/>
<stop offset="1" stop-color="#0E8C59"/>
</linearGradient>
<linearGradient id="paint3_linear_1120_10421" x1="33.5" y1="42" x2="42" y2="-2.25121e-06" gradientUnits="userSpaceOnUse">
<stop stop-color="#0F4837"/>
<stop offset="1" stop-color="#0F8A58"/>
</linearGradient>
</defs>
</svg>
