<svg viewBox="0 0 24 24" width="18px" height="18px" xmlns="http://www.w3.org/2000/svg">
  <path stroke="#000" stroke-width="0.5px" fill="#fff" transform="matrix(0.241922, -0.970296, 0.970296, 0.241922, -2.546611, 20.740487)" d="M 16.292969 2.2929688 L 12.5 6.0859375 L 10.707031 4.2929688 L 9.2929688 5.7070312 L 10.085938 6.5 L 7.8789062 8.7070312 C 6.7158333 9.8701044 6.7158333 11.786146 7.8789062 12.949219 L 8.7578125 13.828125 L 2.2929688 20.292969 L 3.7070312 21.707031 L 10.171875 15.242188 L 11.050781 16.121094 C 12.213854 17.284167 14.129896 17.284167 15.292969 16.121094 L 17.5 13.914062 L 18.292969 14.707031 L 19.707031 13.292969 L 17.914062 11.5 L 21.707031 7.7070312 L 20.292969 6.2929688 L 16.5 10.085938 L 13.914062 7.5 L 17.707031 3.7070312 L 16.292969 2.2929688 z M 11.5 7.9140625 L 16.085938 12.5 L 13.878906 14.707031 C 13.479979 15.105958 12.863771 15.105958 12.464844 14.707031 L 9.2929688 11.535156 C 8.8940417 11.136229 8.8940417 10.520021 9.2929688 10.121094 L 11.5 7.9140625 z"></path>
</svg>